<?xml version="1.0" encoding="utf-8"?>
<!-- Generator: Adobe Illustrator 13.0.0, SVG Export Plug-In . SVG Version: 6.00 Build 14948)  -->
<!DOCTYPE svg PUBLIC "-//W3C//DTD SVG 1.1//EN" "http://www.w3.org/Graphics/SVG/1.1/DTD/svg11.dtd">
<svg version="1.1" id="Capa_1" xmlns="http://www.w3.org/2000/svg" xmlns:xlink="http://www.w3.org/1999/xlink" x="0px" y="0px"
	 width="100px" height="100px" viewBox="0 0 100 100" enable-background="new 0 0 100 100" xml:space="preserve">
<path fill="#AAAAAA" d="M65.811,37.236l-2.104-1.707l-0.98,2.527c-0.019,0.049-1.9,4.808-4.791,3.94
	c-0.64-0.192-1.069-0.563-1.351-1.165c-0.718-1.538-0.412-4.321,0.778-7.091c1.646-3.829,0.925-7.842-2.085-11.604
	c-2.116-2.646-4.659-4.248-4.767-4.315l-3.082-1.922l0.069,3.631c0.001,0.065,0.067,6.517-4.71,8.883
	c-2.927,1.449-5.021,3.847-5.899,6.751c-0.821,2.716-0.477,5.686,0.946,8.147c0.582,1.008,0.759,1.863,0.524,2.541
	c-0.335,0.969-1.415,1.467-1.738,1.597c-3.415,1.372-5.651-3.207-5.741-3.396l-1.558-3.324l-1.909,3.136
	c-2.452,4.028-3.748,8.663-3.748,13.404c0,14.14,11.422,25.66,25.523,25.828c0.104,0.002,0.207,0.004,0.311,0.004l0,0l0,0
	c14.245,0,25.834-11.589,25.834-25.832C75.334,49.47,71.863,42.168,65.811,37.236L65.811,37.236z M41.421,71.081v-0.024
	c-0.02-1.567,0.279-3.249,0.89-5.016l4.855,1.419l0.049-2.577c0.075-3.945,2.301-6.368,4.08-7.679
	c0.456,1.985,1.167,3.755,2.149,5.36c1.119,1.827,2.181,3.376,3.158,4.776c0.629,0.901,0.985,2.262,0.979,3.733v0.009
	c0,2.157-0.841,4.187-2.367,5.713C53.688,78.32,51.66,79.16,49.5,79.16h-0.001C45.046,79.159,41.422,75.537,41.421,71.081
	L41.421,71.081z M60.344,76.281c0.77-1.602,1.177-3.366,1.177-5.194c0.011-2.296-0.588-4.427-1.687-6.002
	c-1.091-1.562-2.024-2.938-3.029-4.579c-1.122-1.832-1.796-3.992-2.062-6.602l-0.26-2.551l-2.397,0.908
	c-0.226,0.085-2.257,0.886-4.339,2.774c-2.208,2.003-3.634,4.479-4.198,7.261l-3.521-1.029l-0.695,1.586
	c-1.259,2.87-1.882,5.643-1.852,8.24c0.002,1.858,0.428,3.62,1.187,5.193c-6.602-3.774-11.061-10.886-11.061-19.019
	c0-2.959,0.595-5.867,1.737-8.558c0.175,0.194,0.361,0.388,0.559,0.578c2.413,2.322,5.32,2.968,8.188,1.816
	c1.937-0.777,3.393-2.223,3.994-3.967c0.43-1.242,0.632-3.256-0.837-5.798c-0.893-1.545-1.101-3.334-0.586-5.037
	c0.56-1.851,1.936-3.398,3.877-4.36c4.084-2.022,5.754-5.819,6.435-8.7c0.43,0.423,0.871,0.901,1.286,1.428
	c2.024,2.566,2.523,5.095,1.483,7.516c-1.663,3.87-1.936,7.726-0.728,10.312c0.759,1.625,2.068,2.757,3.789,3.272
	c2.703,0.812,5.348-0.133,7.445-2.658c0.329-0.396,0.619-0.798,0.871-1.185c4.013,4.077,6.273,9.547,6.273,15.341
	C71.394,65.397,66.939,72.505,60.344,76.281L60.344,76.281z"/>
</svg>
