<?xml version="1.0" encoding="utf-8"?>
<!-- Generator: Adobe Illustrator 13.0.0, SVG Export Plug-In . SVG Version: 6.00 Build 14948)  -->
<!DOCTYPE svg PUBLIC "-//W3C//DTD SVG 1.1//EN" "http://www.w3.org/Graphics/SVG/1.1/DTD/svg11.dtd">
<svg version="1.1" id="Capa_1" xmlns="http://www.w3.org/2000/svg" xmlns:xlink="http://www.w3.org/1999/xlink" x="0px" y="0px"
	 width="100px" height="100px" viewBox="0 0 100 100" enable-background="new 0 0 100 100" xml:space="preserve">
<path fill="#AAAAAA" d="M69.08,37.198c0-3.313,1.42-15.852-2.365-19.637c-3.256-3.255-6.959-5.455-14.774-6.01
	c-0.23-0.085-0.471-0.142-0.728-0.142c-0.594,0-1.157,0.01-1.712,0.024c-0.555-0.015-1.12-0.024-1.714-0.024
	c-0.257,0-0.497,0.057-0.728,0.142c-7.814,0.555-11.52,2.755-14.773,6.01c-3.785,3.785-2.366,16.324-2.366,19.637
	c0,3.312,1.419,20.347,2.839,21.765c1.42,1.42-2.129,4.969-2.129,4.969s-2.016,22.506,18.097,23.605
	c0.006,0.033,0.007,0.053,0.007,0.053c0.265,0,0.509-0.02,0.768-0.025c0.257,0.006,0.501,0.025,0.766,0.025
	c0,0,0.001-0.02,0.007-0.053c20.111-1.1,18.097-23.605,18.097-23.605s-3.549-3.549-2.129-4.969
	C67.661,57.545,69.08,40.51,69.08,37.198z M36.024,41.605c0-3.892,2.463-3.502,5.497-3.502c1.314,0,5.497,2.82,5.497,3.502
	c0,1.935-2.46,2.335-5.497,2.335C38.487,43.94,36.024,43.54,36.024,41.605z M49.5,59.303c-4.942,0-8.95,0.703-8.95-1.068
	s4.008-3.207,8.95-3.207s8.95,1.436,8.95,3.207S54.442,59.303,49.5,59.303z M57.479,43.94c-3.037,0-5.497-0.4-5.497-2.335
	c0-0.682,4.183-3.502,5.497-3.502c3.035,0,5.497-0.39,5.497,3.502C62.976,43.54,60.514,43.94,57.479,43.94z"/>
</svg>
