<?xml version="1.0" encoding="utf-8"?>
<!-- Generator: Adobe Illustrator 13.0.0, SVG Export Plug-In . SVG Version: 6.00 Build 14948)  -->
<!DOCTYPE svg PUBLIC "-//W3C//DTD SVG 1.1//EN" "http://www.w3.org/Graphics/SVG/1.1/DTD/svg11.dtd">
<svg version="1.1" id="Capa_1" xmlns="http://www.w3.org/2000/svg" xmlns:xlink="http://www.w3.org/1999/xlink" x="0px" y="0px"
	 width="100px" height="100px" viewBox="0 0 100 100" enable-background="new 0 0 100 100" xml:space="preserve">
<g>
	<path fill="#AAAAAA" d="M30.508,38.983h-9.218v-6.519h26.38v6.519H38.3V66.79h-7.792V38.983z"/>
	<path fill="#AAAAAA" d="M51.787,32.923C54.281,32.516,58,32.21,62.125,32.21c5.094,0,8.658,0.765,11.102,2.7
		c2.039,1.63,3.158,4.023,3.158,7.18c0,4.379-3.105,7.385-6.059,8.455v0.151c2.393,0.968,3.717,3.26,4.582,6.418
		c1.07,3.87,2.139,8.352,2.801,9.676h-7.943c-0.561-0.968-1.375-3.77-2.395-7.995c-0.916-4.278-2.393-5.45-5.551-5.501h-2.344V66.79
		h-7.689V32.923z M59.477,47.693h3.057c3.869,0,6.162-1.936,6.162-4.94c0-3.158-2.139-4.736-5.705-4.787
		c-1.883,0-2.953,0.153-3.514,0.255V47.693z"/>
</g>
</svg>
