<?xml version="1.0" encoding="utf-8"?>
<!-- Generator: Adobe Illustrator 13.0.0, SVG Export Plug-In . SVG Version: 6.00 Build 14948)  -->
<!DOCTYPE svg PUBLIC "-//W3C//DTD SVG 1.1//EN" "http://www.w3.org/Graphics/SVG/1.1/DTD/svg11.dtd">
<svg version="1.1" id="Capa_1" xmlns="http://www.w3.org/2000/svg" xmlns:xlink="http://www.w3.org/1999/xlink" x="0px" y="0px"
	 width="100px" height="100px" viewBox="0 0 100 100" enable-background="new 0 0 100 100" xml:space="preserve">
<g>
	<path fill="#AAAAAA" d="M20.184,31.917c2.63-0.43,6.55-0.752,10.899-0.752c5.368,0,9.127,0.806,11.705,2.846
		c2.147,1.718,3.328,4.242,3.328,7.571c0,4.617-3.275,7.785-6.39,8.913v0.161c2.523,1.02,3.92,3.438,4.833,6.766
		c1.126,4.08,2.255,8.805,2.951,10.201h-8.375c-0.59-1.02-1.449-3.975-2.523-8.43c-0.967-4.51-2.523-5.744-5.852-5.799H28.29v14.229
		h-8.106V31.917z M28.29,47.487h3.223c4.08,0,6.496-2.041,6.496-5.208c0-3.328-2.255-4.993-6.014-5.046
		c-1.986,0-3.113,0.161-3.705,0.268V47.487z"/>
	<path fill="#AAAAAA" d="M78.387,66.602c-1.503,0.752-4.886,1.557-9.288,1.557c-12.51,0-18.952-7.785-18.952-18.095
		c0-12.349,8.806-19.221,19.757-19.221c4.242,0,7.464,0.859,8.913,1.611l-1.665,6.497c-1.663-0.698-3.973-1.343-6.872-1.343
		c-6.496,0-11.543,3.919-11.543,11.974c0,7.247,4.294,11.812,11.597,11.812c2.47,0,5.208-0.537,6.818-1.182L78.387,66.602z"/>
</g>
</svg>
