<?xml version="1.0" encoding="utf-8"?>
<!-- Generator: Adobe Illustrator 13.0.0, SVG Export Plug-In . SVG Version: 6.00 Build 14948)  -->
<!DOCTYPE svg PUBLIC "-//W3C//DTD SVG 1.1//EN" "http://www.w3.org/Graphics/SVG/1.1/DTD/svg11.dtd">
<svg version="1.1" id="Capa_1" xmlns="http://www.w3.org/2000/svg" xmlns:xlink="http://www.w3.org/1999/xlink" x="0px" y="0px"
	 width="150px" height="150px" viewBox="0 0 150 150" enable-background="new 0 0 150 150" xml:space="preserve">
<g>
	<path d="M29.565,105.993c-4.686,0-8.183-1.126-10.492-3.379c-2.309-2.253-3.463-5.823-3.463-10.713v-8.624
		c0-2.331-0.521-4.086-1.562-5.263c-1.042-1.177-2.773-1.767-5.196-1.767H6.714v-6.417h2.138c1.223,0,2.264-0.13,3.125-0.391
		c0.859-0.26,1.562-0.662,2.105-1.205c0.543-0.544,0.933-1.24,1.171-2.089s0.357-1.861,0.357-3.038v-5.977
		c0-2.331,0.266-4.38,0.797-6.146s1.364-3.237,2.496-4.414c1.131-1.177,2.575-2.065,4.33-2.666c1.754-0.6,3.865-0.899,6.332-0.899
		h2.852v6.384h-2.138c-1.087,0-2.066,0.13-2.938,0.39c-0.872,0.261-1.625,0.685-2.258,1.273s-1.121,1.364-1.46,2.326
		c-0.339,0.962-0.509,2.156-0.509,3.582v5.942c0,1.698-0.142,3.146-0.425,4.346c-0.283,1.201-0.719,2.202-1.307,3.005
		c-0.588,0.804-1.335,1.427-2.241,1.868s-1.97,0.753-3.192,0.934c2.421,0.271,4.222,1.217,5.398,2.835s1.766,4.104,1.766,7.453
		v8.624c0,1.472,0.17,2.694,0.509,3.668c0.339,0.973,0.826,1.754,1.46,2.342c0.634,0.59,1.387,1.007,2.258,1.258
		c0.871,0.248,1.85,0.373,2.938,0.373h2.138v6.384H29.565z"/>
	<path d="M86.311,92.512h-4.729V72.276c0-4.218-0.672-7.324-2.016-9.318c-1.346-1.992-3.339-2.989-5.981-2.989
		c-1.391,0-2.701,0.255-3.929,0.765c-1.229,0.511-2.364,1.229-3.408,2.155c-1.043,0.929-1.958,2.029-2.747,3.303
		c-0.788,1.276-1.391,2.678-1.807,4.208v22.112h-4.729V72.276c0-4.312-0.649-7.44-1.947-9.388c-1.298-1.946-3.292-2.92-5.98-2.92
		c-2.736,0-5.169,0.95-7.302,2.851c-2.132,1.901-3.662,4.405-4.589,7.511v22.182h-4.729V56.282h4.312v8.206
		c1.484-2.781,3.43-4.948,5.842-6.502c2.41-1.553,5.076-2.33,7.997-2.33c3.06,0,5.505,0.859,7.336,2.573
		c1.831,1.716,2.956,3.964,3.373,6.746c3.384-6.213,8.043-9.319,13.978-9.319c2.039,0,3.766,0.372,5.182,1.113
		c1.414,0.742,2.549,1.797,3.406,3.164c0.857,1.368,1.484,3.014,1.877,4.938c0.395,1.924,0.592,4.067,0.592,6.432V92.512z"/>
	<path d="M86.867,74.294c0-2.55,0.439-4.961,1.32-7.233c0.881-2.271,2.121-4.252,3.721-5.944s3.512-3.025,5.736-3.999
		c2.227-0.974,4.684-1.461,7.371-1.461c3.432,0,6.422,0.777,8.971,2.33c2.551,1.554,4.475,3.651,5.773,6.294l-4.59,1.46
		c-1.021-1.854-2.447-3.304-4.277-4.347c-1.832-1.043-3.859-1.564-6.084-1.564c-1.855,0-3.582,0.371-5.182,1.113
		s-2.99,1.75-4.172,3.024c-1.184,1.275-2.109,2.794-2.781,4.555c-0.674,1.763-1.008,3.686-1.008,5.772
		c0,2.04,0.346,3.963,1.041,5.771c0.695,1.808,1.646,3.372,2.852,4.693s2.609,2.364,4.207,3.129c1.6,0.766,3.305,1.148,5.111,1.148
		c1.158,0,2.307-0.163,3.443-0.487c1.135-0.324,2.189-0.775,3.162-1.356c0.975-0.579,1.809-1.239,2.504-1.981
		c0.697-0.741,1.184-1.53,1.461-2.364l4.66,1.391c-0.512,1.299-1.254,2.492-2.227,3.581c-0.973,1.091-2.121,2.041-3.441,2.852
		c-1.322,0.812-2.781,1.438-4.381,1.878c-1.6,0.439-3.258,0.66-4.973,0.66c-2.643,0-5.076-0.499-7.301-1.495
		c-2.227-0.996-4.15-2.364-5.773-4.104c-1.621-1.737-2.885-3.742-3.789-6.015C87.318,79.324,86.867,76.89,86.867,74.294z"/>
	<path d="M119.4,43.007c4.707,0,8.217,1.126,10.525,3.378c2.311,2.253,3.463,5.835,3.463,10.747v5.704
		c0,2.332,0.516,4.081,1.547,5.246c1.029,1.166,2.756,1.749,5.178,1.749h2.172v6.417h-2.172c-1.223,0-2.264,0.131-3.125,0.391
		c-0.859,0.261-1.557,0.662-2.088,1.206c-0.531,0.543-0.916,1.239-1.154,2.088s-0.357,1.861-0.357,3.038v8.931
		c0,2.332-0.266,4.375-0.797,6.129s-1.363,3.22-2.496,4.397c-1.133,1.177-2.58,2.065-4.346,2.665s-3.883,0.9-6.35,0.9h-2.852v-6.384
		h2.174c1.086,0,2.064-0.125,2.936-0.373c0.871-0.251,1.625-0.675,2.258-1.273c0.635-0.601,1.121-1.381,1.461-2.344
		c0.338-0.962,0.508-2.156,0.508-3.582v-8.828c0-1.698,0.143-3.151,0.426-4.363c0.283-1.21,0.713-2.219,1.291-3.021
		c0.576-0.804,1.318-1.42,2.223-1.851c0.906-0.431,1.969-0.735,3.191-0.917c-2.422-0.294-4.215-1.251-5.381-2.869
		s-1.75-4.103-1.75-7.453v-5.67c0-1.472-0.17-2.7-0.508-3.685c-0.34-0.984-0.826-1.771-1.461-2.36
		c-0.633-0.588-1.387-1.007-2.258-1.256s-1.85-0.373-2.936-0.373h-2.174v-6.384H119.4z"/>
</g>
</svg>
