<?xml version="1.0" encoding="utf-8"?>
<!-- Generator: Adobe Illustrator 13.0.0, SVG Export Plug-In . SVG Version: 6.00 Build 14948)  -->
<!DOCTYPE svg PUBLIC "-//W3C//DTD SVG 1.1//EN" "http://www.w3.org/Graphics/SVG/1.1/DTD/svg11.dtd">
<svg version="1.1" id="Capa_1" xmlns="http://www.w3.org/2000/svg" xmlns:xlink="http://www.w3.org/1999/xlink" x="0px" y="0px"
	 width="150px" height="150px" viewBox="0 0 150 150" enable-background="new 0 0 150 150" xml:space="preserve">
<g>
	<path fill="#F77754" d="M148.966,82.879c-0.637,5.642-3.07,11.1-7.3,16.375c-4.232,5.276-11.308,7.915-21.222,7.915
		c-8.919,0-16.264-2.594-22.04-7.778c-5.778-5.187-8.666-12.964-8.666-23.336c0-10.917,3.14-19.151,9.417-24.701
		c6.277-5.548,13.872-8.324,22.79-8.324c3.365,0,6.98,0.433,10.849,1.296c3.865,0.866,7.663,2.299,11.395,4.298l2.731,18.697
		l-14.058,1.501l-2.048-10.1c-3.549-1.181-6.643-1.774-9.278-1.774c-3.731,0-6.916,1.434-9.553,4.298
		c-2.641,2.866-3.958,7.53-3.958,13.989c0,12.009,4.686,18.013,14.056,18.013c6.913,0,10.963-4.367,12.146-13.101L148.966,82.879z"
		/>
	<path fill="#0A516D" d="M120.444,107.169H89.192V72.506c0-5.275-0.888-9.051-2.659-11.326c-1.775-2.272-4.392-3.412-7.848-3.412
		c-4.187,0-7.212,1.365-9.077,4.094c-1.864,2.729-2.797,6.232-2.797,10.508v21.561H75v13.237H49.207V72.506
		c0-5.275-0.887-9.051-2.661-11.326c-1.773-2.272-4.39-3.412-7.846-3.412c-4.278,0-7.325,1.365-9.144,4.094
		c-1.821,2.729-2.73,6.232-2.73,10.508v21.561h11.737v13.237H1.034V93.932h8.188V58.996H1.171V45.622h25.655v9.279
		c3.911-7.004,10.144-10.508,18.697-10.508c4.456,0,8.55,1.092,12.282,3.276c3.729,2.183,6.321,5.505,7.777,9.961
		c3.639-8.823,10.325-13.237,20.062-13.237c5.547,0,10.461,1.729,14.738,5.187c4.275,3.458,6.413,8.826,6.413,16.103v28.249h13.648
		V107.169z"/>
</g>
</svg>
